<!DOCTYPE svg PUBLIC "-//W3C//DTD SVG 1.1//EN" "http://www.w3.org/Graphics/SVG/1.1/DTD/svg11.dtd">
<!-- Uploaded to: SVG Repo, www.svgrepo.com, Transformed by: SVG Repo Mixer Tools -->
<svg width="146px" height="146px" viewBox="0 -19.77 349.005 349.005" xmlns="http://www.w3.org/2000/svg" fill="#000000">
<g id="SVGRepo_bgCarrier" stroke-width="0"/>
<g id="SVGRepo_tracerCarrier" stroke-linecap="round" stroke-linejoin="round"/>
<g id="SVGRepo_iconCarrier">
<defs>
<style>.a{fill:#ffffff;}.b{fill:#aaa0c7;}.c{fill:#b3b3b3;}.d{fill:#211715;}.e{fill:#ffda71;}</style>
</defs>
<path class="a" d="M180.875,236.377c6.57,20.873,15.194,48.35,19.891,63.374a5.635,5.635,0,0,1-2.574,6.576l-.537.308.567-.237c12.083-5.041,51.207-22.425,58.625-25.833l-2.761-12.955S191.777,240.211,180.875,236.377Z"/>
<path class="a" d="M213.061,242.282q4.326.451,8.622,1.137c.981.156,1.983.318,2.993.455l-.267-2.981c-.575-6.412-2.323-30.832-3.073-36.989-1.606-13.167-4.534-26.138-6.8-39.208-2.1-12.122-1.4-23.607,1.062-35.317-8.669,5.912-18.42,9.986-29.212,10.621-4.93.29-10.02-.19-14.47-2.34a18.022,18.022,0,0,1-5.07-3.61l-.635-.648c-.819,6.321-1.788,12.632-3.115,18.718-1.42,6.47-2.094,14.733-2.964,21.273-1.528,11.54,2.043,28.507,3.795,38.348q1.476,0,2.793.015a8.787,8.787,0,0,1,8.328,6.14c3.011,9.521,7.917,25.11,12.851,40.818,3.127-4.008,5.961-8.426,9.82-11.816a18.32,18.32,0,0,1,10.235-4.814,25.226,25.226,0,0,1,4.748.161Z"/>
<path class="b" d="M166.063,134.537c.576-4.338,1.076-8.687,1.568-12.977l.011-.155c-2.756.815-5.809,1.721-6.677,2.11-7.555,2.605-15.889,6.613-20,11.383-6.279,7.285-9.556,17.237-10.889,23.742,0,0-1.734,7.964-3.318,15.264-7.988,2.982-22.9,7.3-29.013,9.3a291.241,291.241,0,0,0,9.738,28.273c22.236.112,43.683.189,56.445.265l-.209-1.152c-1.81-9.971-5.058-26.093-3.588-37.193.87-6.54,1.544-14.8,2.964-21.273C164.343,146.4,165.274,140.478,166.063,134.537Z"/>
<path class="b" d="M266.512,263.284a78.361,78.361,0,0,0,13.535-8.355,28.76,28.76,0,0,0,10-14.869c.869-2.779,1.394-9.653,1.305-12.722-.111-3.834-1.827-14.194-2.75-19.292-1.684-9.812-4.071-18.4-6.361-26.873-2.222-8.224-7.7-29.208-15.555-40.545-8.656-12.494-20.778-17.346-36-21.79l-11.129-3.506-.26-.082c-5.158,16.81-7.7,32.507-4.763,49.446,2.267,13.07,5.195,26.041,6.8,39.208.75,6.157,2.5,30.577,3.073,36.989l.267,2.981c4.57.623,9.288.759,12.843-2.246,6.442,5.7,12.2,17.76,14.618,27.908A150.666,150.666,0,0,0,266.512,263.284Z"/>
<path class="c" d="M168,7.008a45.886,45.886,0,0,0-16.874,13.251c-5.032,5.85-7.973,13.462-9.395,21.071-1.192,6.379-.456,18.53,1.127,26.917,0,0,1.541,8.046,10.726,18.446,13.182,14.926,54.583,24.639,54.583,24.639l19.25-1.972c3.75.306,6.917-.667,10.548-2.12,9.653-4,8.128-14.193,6.03-19.047-1.84-4.228-2.3-14.1-1.459-21.363,1.369-11.783.955-22.2-1.268-28.534-2.7-7.684-4.883-12.1-11.308-19.191C215.944,4.4,200.626,2.126,190.292,2.4,182.238,2.616,174.787,3.94,168,7.008Z"/>
<path class="a" d="M171.993,137.7l-.078-.038a17.857,17.857,0,0,1-5.7-4.29c.512-3.95.967-7.9,1.415-11.81l.059-.884c3.069-.906,5.684-1.677,4.356-1.453a34.946,34.946,0,0,1-15.073-7.525c-7.4-6.063-10.614-15.618-11.768-26.181-.621-5.684-.7-11.491-1.847-17.935.413-6.618.94-10.664,3.443-16.672a30.723,30.723,0,0,1,8.083-11.4c.721,1.04,1.241,1.784,1.241,1.784,3.6,5.15,8.933,10.484,19.148,13.643,11.5,3.558,16.209,3.263,24.353,2.58,4.886,4.168,10.34,7.316,16.614,10.753l10.467.663a6.713,6.713,0,0,1,4.844-1.063,6.057,6.057,0,0,1,5.027,3.471c1.461,3.228.726,8.759-.908,12.048a17.563,17.563,0,0,1-6.64,7.806,12.863,12.863,0,0,1-6.32,1.457l-.451.915c-.807,1.682-2.717,4.626-2.717,4.626a62.03,62.03,0,0,1-5.358,6.919l.314,1.74a17.708,17.708,0,0,0,.96,3.657,10.51,10.51,0,0,0,3.965,4.329c-1.525,4.923-2.823,9.751-3.829,14.541-8.666,5.913-18.416,9.987-29.209,10.622C181.484,140.288,176.424,139.815,171.993,137.7Z"/>
<path class="a" d="M227.948,275.063c-4.153,3.339-7.29,7.869-11.591,12.351-.618.644-3.15,2.333-5.1.827-1.284-.989-1.469-3.476-1-4.491,2.528-5.526,3.564-7.2,5.442-11.069-2.289,2.412-4.075,4.433-6.786,7.174l-2.763,2.793q-4.075,4.12-8.15,8.241c-2.9-9.264-6.5-20.752-10.093-32.175,3.127-4.008,5.961-8.426,9.819-11.816a18.32,18.32,0,0,1,10.235-4.814,25.226,25.226,0,0,1,4.748.161q4.507.46,8.982,1.174c5.423.865,11.5,1.878,15.836-1.792,5.621,4.974,10.722,14.79,13.539,23.952a22.192,22.192,0,0,0-2.914,1.7c-.627.428-2.644,2.216-3.312,2.578a46,46,0,0,1-16.549,5.114"/>
<path class="a" d="M97.511,128.214c.114-.02.23-.038.349-.053a15.827,15.827,0,0,1,2.4-.1l-.853-2.1q-2.641-6.206-5.275-12.415a17.276,17.276,0,0,1-1.1-3.132,6.452,6.452,0,0,1,.929-5.167c1.02-1.321,3.1-1.454,4.722-.845,1.778.668,2.763,2.077,3.873,3.857,3.6,5.777,8.348,17.311,10.393,23.836l.521,1.661c2.243-.812,4.642-1.233,6.666-.117a8.6,8.6,0,0,1,3.427,4.559,28.919,28.919,0,0,1-1.319,24.165,89.407,89.407,0,0,1,3.958,11.354l.092.365c-6.175,2.272-16.081,5.255-23.083,7.41l-.25-.932c-.418-1.563-2.922-9.4-4.24-11.307a23.563,23.563,0,0,0-4.22-4.181,90.823,90.823,0,0,1-7.477-7.58c-1.309-1.378-2.786-4.8-2.443-6.85a12.523,12.523,0,0,1,2.879-6.65,4.2,4.2,0,0,1,3.268-1.157l-.162-.339a5.354,5.354,0,0,1-1.02-4.374c.517-2.04,1.452-2.468,3.14-2.9a1.04,1.04,0,0,1,.126-.025l.016-1.944a4.272,4.272,0,0,1,1.27-3.159A5.824,5.824,0,0,1,97.511,128.214Z"/>
<path class="d" d="M288.131,251.691q9.887,0,19.771-.024l31.024-.038q3.88-.006,7.761-.009c3.088,0,3.094-4.8,0-4.8q-10.14,0-20.28.024l-30.882.038q-3.7.006-7.394.009c-3.088,0-3.093,4.8,0,4.8Z"/>
<path class="d" d="M2.318,251.7q17.78-.008,35.557-.07,2.814,0,5.628-.009c3.088,0,3.093-4.8,0-4.8-11.988,0-23.976.046-35.963.069q-2.611.006-5.222.01c-3.088,0-3.093,4.8,0,4.8Z"/>
<path class="d" d="M236.969,236.086c4.926-2.089,9.661-4.524,14.473-6.855a2.413,2.413,0,0,0,.861-3.284,2.463,2.463,0,0,0-3.284-.861c-4.812,2.331-9.546,4.766-14.473,6.855a2.4,2.4,0,0,0-.861,3.284,2.478,2.478,0,0,0,3.284.861Z"/>
<path class="d" d="M240.152,190.867l7.317,26.786c.813,2.976,5.445,1.713,4.629-1.276l-7.318-26.786c-.813-2.976-5.445-1.713-4.628,1.276Z"/>
<path class="d" d="M235.385,240.25c-3.409,2.176-7.641,1.691-11.453,1.109-4.716-.72-9.536-1.662-14.317-1.728-9.748-.136-16.148,7.638-21.445,14.767a2.415,2.415,0,0,0,.861,3.283,2.456,2.456,0,0,0,3.284-.861c2.5-3.366,5.094-6.93,8.553-9.386a16.559,16.559,0,0,1,5.31-2.608,17.516,17.516,0,0,1,6.286-.2c4.454.442,8.845,1.278,13.287,1.789,4.128.475,8.457.283,12.057-2.016,2.6-1.657.191-5.813-2.423-4.144Z"/>
<path class="d" d="M198.327,257.724,190.987,265a2.4,2.4,0,0,0,3.394,3.394l7.34-7.277a2.4,2.4,0,0,0-3.394-3.394Z"/>
<path class="d" d="M199.006,278.607c3.7-4.325,7.756-8.348,11.8-12.348a2.4,2.4,0,0,0-3.394-3.394c-4.048,4-8.1,8.022-11.8,12.348a2.4,2.4,0,0,0,3.394,3.394Z"/>
<path class="d" d="M204.367,287.854c2.726-2.755,5.487-5.481,8.162-8.287,2.363-2.479,4.653-5.024,7.06-7.462a2.4,2.4,0,1,0-3.4-3.394c-2.406,2.438-4.7,4.983-7.059,7.462-2.675,2.806-5.436,5.531-8.162,8.287a2.4,2.4,0,0,0,3.394,3.394Z"/>
<path class="d" d="M228.283,277.372a52.421,52.421,0,0,0,14.246-3.738,22.124,22.124,0,0,0,5.34-3.073c.33-.266.655-.537.983-.806.161-.131.321-.263.484-.393.309-.246-.269.19-.039.032a25.482,25.482,0,0,1,2.99-1.752,2.4,2.4,0,0,0-2.423-4.145,24.94,24.94,0,0,0-4.618,3.038,17.134,17.134,0,0,1-1.429,1.13,22.215,22.215,0,0,1-2.93,1.48,44.369,44.369,0,0,1-12.6,3.427,2.479,2.479,0,0,0-2.4,2.4,2.413,2.413,0,0,0,2.4,2.4Z"/>
<path class="d" d="M234.948,242.6c3.867,2.885,6.682,7.51,8.922,11.766a68.529,68.529,0,0,1,6,16.005c.715,3,5.345,1.732,4.628-1.276a73.444,73.444,0,0,0-6.674-17.5c-2.64-4.942-5.923-9.753-10.456-13.135a2.416,2.416,0,0,0-3.284.861,2.457,2.457,0,0,0,.861,3.283Z"/>
<path class="d" d="M212.9,272.929c-.981,1.958-2,3.9-2.96,5.866a40.722,40.722,0,0,0-2.032,4.384,6.956,6.956,0,0,0-.033,3.9,5.48,5.48,0,0,0,7.5,3.709c2.884-1.147,4.784-3.93,6.747-6.209a61.12,61.12,0,0,1,7.526-7.817,2.417,2.417,0,0,0,0-3.394,2.456,2.456,0,0,0-3.394,0c-4.423,3.6-7.649,8.356-11.631,12.391-.062.063-.405.325-.136.13.288-.209-.313.184-.38.222-.112.064-.57.27-.219.133-.14.055-.712.219-.583.2a.585.585,0,0,1-.609-.109c.232.136-.134-.229.081.095a3.576,3.576,0,0,1-.211-.371c.111.221.045.153,0-.038-.05-.217-.116-.428-.154-.648.079.455.016-.171.009-.324-.005-.1.02-.2.011-.3,0,.052-.119.4-.026.177.032-.074.031-.17.057-.248.119-.352-.109.215.075-.177.532-1.13,1.055-2.263,1.6-3.386.943-1.932,1.944-3.834,2.907-5.755a2.46,2.46,0,0,0-.861-3.284,2.424,2.424,0,0,0-3.284.861Z"/>
<path class="d" d="M198.86,308.713c7.83-3.27,15.592-6.7,23.358-10.121q13.451-5.918,26.866-11.912c3-1.339,5.993-2.674,8.974-4.043a2.418,2.418,0,0,0,.861-3.283,2.455,2.455,0,0,0-3.283-.861c-15.65,7.186-31.447,14.072-47.236,20.944q-3.173,1.381-6.351,2.749-1.328.57-2.658,1.136c-.2.085-1.359.575-.761.323l-1.046.439a2.48,2.48,0,0,0-1.676,2.952,2.415,2.415,0,0,0,2.952,1.677Z"/>
<path class="a" d="M40.551,210.916c30.788.512,101.072.672,126.168.84a8.787,8.787,0,0,1,8.328,6.14c5.972,18.886,19.4,61.641,25.719,81.855a5.633,5.633,0,0,1-5.4,7.317c-27.195-.1-100.463-.36-128.632-.93a5.621,5.621,0,0,1-5.264-3.963c-5.555-17.964-19.819-63.232-26.391-83.911A5.639,5.639,0,0,1,40.551,210.916Z"/>
<path class="d" d="M40.551,213.316c14.38.238,28.762.331,43.143.423q25.2.164,50.4.257,10.6.046,21.2.1,4.14.021,8.28.044c3.068.018,6.221-.167,8.25,2.622a14.944,14.944,0,0,1,1.752,4.442q.708,2.24,1.414,4.479,1.686,5.344,3.369,10.692,3.911,12.424,7.813,24.851,3.846,12.245,7.685,24.491,1.62,5.164,3.236,10.329c.776,2.481,3.053,6.784-.324,8.328-1.138.52-2.6.294-3.829.29l-3.975-.015-9.171-.034q-10.962-.042-21.926-.092-24.94-.115-49.881-.3c-13.491-.1-26.983-.206-40.472-.469-1.5-.029-2.927-.386-3.616-1.89a31.884,31.884,0,0,1-1.2-3.821q-1.446-4.653-2.9-9.3-3.63-11.616-7.285-23.226-7.175-22.82-14.4-45.621c-.421-1.327-1.2-2.86-.773-4.241a3.289,3.289,0,0,1,3.211-2.334c3.086-.04,3.095-4.84,0-4.8a8.135,8.135,0,0,0-7.955,9.717,46.917,46.917,0,0,0,1.424,4.621q.786,2.478,1.571,4.957,3.755,11.853,7.491,23.713,7.405,23.495,14.747,47.008c1.1,3.547,1.849,7.463,5.562,9.211,2.807,1.321,6.541.858,9.591.905q10.267.162,20.537.249,25.368.246,50.736.355,22.467.117,44.935.194l4.052.015a13.22,13.22,0,0,0,5.08-.562,8.142,8.142,0,0,0,4.779-5.2c.652-2.148.116-4.154-.528-6.212q-3.467-11.084-6.945-22.163-7.822-24.933-15.674-49.858c-1.014-3.215-1.781-6.721-3.215-9.776-2.032-4.33-6.346-6.314-10.931-6.343q-8.968-.058-17.936-.093-24.9-.113-49.8-.233c-16.191-.088-32.383-.183-48.574-.381q-4.476-.054-8.952-.127C37.461,208.465,37.46,213.265,40.551,213.316Z"/>
<path class="a" d="M293.093,98.272a3.312,3.312,0,0,1-.37-2.442,72.4,72.4,0,0,1,4.144-13.344s.281-.418.664-.992a86.98,86.98,0,0,0,16.213,6.578c-.024.689-.036,1.2-.036,1.2.41.973-2.784,8.824-4.432,12.03a6.1,6.1,0,0,1-1.113,1.532,5.39,5.39,0,0,1-3.157,1,62.372,62.372,0,0,1-9.081-3.439,6.886,6.886,0,0,1-2.757-2C293.142,98.354,293.117,98.313,293.093,98.272Z"/>
<path class="e" d="M327.869,52.5c.427.481.85,1,1.259,1.56a19.1,19.1,0,0,1,2.228,19.754,23.836,23.836,0,0,1-5.469,7.788,27.06,27.06,0,0,1-5.7,4.418,25.72,25.72,0,0,1-5.445,2.32,83.374,83.374,0,0,1-18.356-7.508c-3.037-2.834-4.5-9.576-4.3-13.226a26.884,26.884,0,0,1,1.4-7.848,22.826,22.826,0,0,1,4.588-7.515,19.588,19.588,0,0,1,9.9-6.161,22.538,22.538,0,0,1,12.619,1.131A20.568,20.568,0,0,1,327.869,52.5Z"/>
<path class="d" d="M326.171,54.2A17.415,17.415,0,0,1,329.2,72.808a24.4,24.4,0,0,1-15.1,13.22h1.276a75.566,75.566,0,0,1-14.858-5.667,9.088,9.088,0,0,1-3.025-1.841,11.169,11.169,0,0,1-1.56-2.832,20.712,20.712,0,0,1-1.465-7.038,21.267,21.267,0,0,1,5.3-14.708c3.414-3.716,7.739-6.06,12.9-5.935a18.517,18.517,0,0,1,3.338.374c.621.119,1.238.256,1.847.426q.612.171,1.212.384.447.157.886.338-.646-.275-.277-.116a22.045,22.045,0,0,1,6.5,4.786c2.084,2.29,5.47-1.112,3.395-3.394-6.49-7.134-17.344-9.8-26.208-5.6a23.953,23.953,0,0,0-8.6,7.293,26.325,26.325,0,0,0-5.087,15.359A22.432,22.432,0,0,0,293.18,80.72a8,8,0,0,0,2.61,2.548c1.093.627,2.215,1.2,3.35,1.752,2.425,1.17,4.916,2.213,7.432,3.167,2.08.788,4.185,1.521,6.322,2.138a4.836,4.836,0,0,0,3.085.145,28.954,28.954,0,0,0,14.179-10.035,24,24,0,0,0,5.364-15.359,22.932,22.932,0,0,0-5.956-14.271C327.53,48.474,324.147,51.88,326.171,54.2Z"/>
<path class="d" d="M294.913,92.773A146.732,146.732,0,0,0,309.676,98.3a2.421,2.421,0,0,0,2.952-1.676,2.451,2.451,0,0,0-1.676-2.952c-2.334-.733-4.646-1.537-6.94-2.386q-1.833-.678-3.65-1.4-.878-.35-1.75-.71L298.189,89q.337.142-.049-.022c-.269-.115-.537-.23-.8-.347a2.464,2.464,0,0,0-3.284.861,2.426,2.426,0,0,0,.861,3.283Z"/>
<path class="d" d="M294.8,81.274c-1.536,2.742-2.355,6.095-3.213,9.094a43.462,43.462,0,0,0-1.173,4.824,6.26,6.26,0,0,0,3.493,6.872,49.261,49.261,0,0,0,5.532,2.41,26.769,26.769,0,0,0,4.934,1.677,6.658,6.658,0,0,0,6.276-2.555,21.757,21.757,0,0,0,2.255-4.42c.853-1.97,1.675-3.959,2.375-5.989.458-1.331,1.206-3.134.748-4.553-.946-2.927-5.582-1.675-4.629,1.276.028.085-.049-.774-.06-.2.007-.365.067-.4-.046.086-.132.569-.31,1.127-.494,1.681-.474,1.431-1.024,2.838-1.6,4.232-.44,1.071-1.039,2.442-1.644,3.686a9.216,9.216,0,0,1-.984,1.654c.1-.115.472-.251.06-.078-.149.062-.288.163-.435.232-.638.3-.277.115-.212.091-.021.008-.669.269-.472.169-.251.128-.334-.019-.028.031a3.246,3.246,0,0,1-.36-.086c-.321-.092-.641-.181-.959-.283-.833-.266-1.654-.573-2.47-.888-1.523-.59-2.8-1.122-4.253-1.772a7.581,7.581,0,0,1-1.99-1.1c-.427-.386-.445-.635-.343-1.272a37.818,37.818,0,0,1,1.066-4.31q.745-2.622,1.634-5.2c.228-.661.464-1.321.719-1.973.055-.14.113-.279.167-.42-.079.2-.176.378-.029.072.091-.188.174-.377.277-.56,1.511-2.7-2.634-5.121-4.145-2.423Z"/>
<path class="d" d="M340.271,37.734q-2.625,2-5.272,3.975a2.613,2.613,0,0,0-1.1,1.434,2.454,2.454,0,0,0,.242,1.85,2.425,2.425,0,0,0,1.434,1.1,2.338,2.338,0,0,0,1.849-.242q2.647-1.972,5.273-3.975a2.69,2.69,0,0,0,1.1-1.434,2.458,2.458,0,0,0-.242-1.85,2.424,2.424,0,0,0-1.435-1.1,2.32,2.32,0,0,0-1.849.241Z"/>
<path class="d" d="M328.545,36.033q.429-1.122.895-2.229l-.242.573q.644-1.521,1.361-3.009a2.573,2.573,0,0,0,.242-1.85,2.448,2.448,0,0,0-1.1-1.434,2.423,2.423,0,0,0-1.849-.242,2.374,2.374,0,0,0-1.435,1.1c-.915,1.9-1.746,3.842-2.5,5.812a2.413,2.413,0,0,0,.242,1.849,2.4,2.4,0,0,0,3.283.861l.486-.375a2.387,2.387,0,0,0,.617-1.059Z"/>
<path class="d" d="M316.232,33.721c-.3-2.208-.653-4.414-1.14-6.59a2.419,2.419,0,0,0-2.952-1.677,2.454,2.454,0,0,0-1.676,2.953c.487,2.176.839,4.382,1.139,6.59a2.4,2.4,0,0,0,1.1,1.435,2.456,2.456,0,0,0,1.85.242,2.429,2.429,0,0,0,1.434-1.1l.242-.574a2.423,2.423,0,0,0,0-1.276Z"/>
<path class="d" d="M322.127,73.961a10.409,10.409,0,0,0-2.787-6.4c-1.5-1.743-3.544-3.679-5.88-4.08-4.947-.849-9.725,3.669-8.1,8.712a6.682,6.682,0,0,0,4.743,4.429,6.071,6.071,0,0,0,3.436.054,7.536,7.536,0,0,0,3.115-2.173,7.3,7.3,0,0,0,1.661-6.781,10.7,10.7,0,0,0-3.76-5.36,10.83,10.83,0,0,0-7.9-2.625,10.649,10.649,0,0,0-7.12,4.184,2.477,2.477,0,0,0,0,3.394,2.415,2.415,0,0,0,3.394,0c1.726-2.2,3.992-3.612,6.8-2.39a7.818,7.818,0,0,1,3.216,2.577c-.064-.088.326.528.384.632.086.152.172.31.242.469-.024-.054-.087-.226,0,.028.07.2.213.8.212.794-.013-.131-.09.872-.021.561a2.12,2.12,0,0,1-.242.693,3.137,3.137,0,0,1-.34.517,6.537,6.537,0,0,1-.62.605c-.015.011-.848.447-.514.32.475-.181-.407-.05-.148-.013a6.076,6.076,0,0,1-.89-.226c-.4-.12.3.17-.082-.028a4.39,4.39,0,0,1-.441-.255c.055.037-.388-.425-.234-.207a2.253,2.253,0,0,1-.417-1.121,1.971,1.971,0,0,1,.241-1.067c.122-.144.263-.265.39-.4.033-.036.271-.215.045-.045-.255.191.107-.063.171-.1l.379-.214c.326-.188-.307.1.06-.039.112-.042.226-.081.34-.116.156-.046.317-.088.477-.119-.386.076.337-.01.368-.011a2.259,2.259,0,0,1,1.423.659,17.67,17.67,0,0,1,1.929,1.812,7.586,7.586,0,0,1,1.246,1.756,3.865,3.865,0,0,1,.428,1.578,2.45,2.45,0,0,0,2.4,2.4,2.423,2.423,0,0,0,2.4-2.4Z"/>
<path class="d" d="M124.556,163.117a31.7,31.7,0,0,0,3.434-15.063c-.123-4.8-1.183-10.533-4.234-14.387-3.734-4.717-9.519-3.012-14.169-.87-4.469,2.058-9.262,6.085-7.957,11.618a6.675,6.675,0,0,0,5.527,5.121,10.646,10.646,0,0,0,4.49-.772l4.767-1.541c2.927-.947,1.675-5.583-1.276-4.629-2.077.671-4.145,1.427-6.249,2.009-1.188.329-2.082.128-2.54-1.134-1.213-3.346,3.8-5.692,6.059-6.708a12.491,12.491,0,0,1,4.9-1.407c1.693-.006,2.689,1.034,3.449,2.446a23.526,23.526,0,0,1,2.444,10.676,26.468,26.468,0,0,1-2.787,12.219c-1.387,2.751,2.752,5.184,4.145,2.422Z"/>
<path class="d" d="M120.3,163.874a78.459,78.459,0,0,1,3.595,10.472,2.4,2.4,0,0,0,4.629-1.276,78.464,78.464,0,0,0-3.6-10.472,2.641,2.641,0,0,0-1.1-1.434,2.451,2.451,0,0,0-1.85-.242c-1.113.36-2.189,1.709-1.676,2.952Z"/>
<path class="d" d="M128.211,170.772c-10.076,4.137-20.762,6.74-31.1,10.113a2.441,2.441,0,0,0-1.676,2.953c2.577,8.683,5.425,17.256,8.719,25.7a2.472,2.472,0,0,0,2.953,1.676,2.417,2.417,0,0,0,1.676-2.952c-3.3-8.44-6.142-17.013-8.72-25.7l-1.676,2.952c10.342-3.373,21.028-5.976,31.1-10.114a2.478,2.478,0,0,0,1.677-2.952,2.415,2.415,0,0,0-2.953-1.676Z"/>
<path class="d" d="M101.479,124.741c-1.782-4.187-3.614-8.357-5.337-12.569-.626-1.529-1.318-3.4-.561-5.021.459-.986,1.688-.809,2.526-.4,1.21.589,1.931,1.968,2.6,3.065.765,1.259,1.462,2.558,2.129,3.871,1.516,2.983,2.887,6.044,4.156,9.14,1.335,3.252,2.59,6.544,3.649,9.9.926,2.935,5.562,1.681,4.628-1.276a127.808,127.808,0,0,0-8.988-21.53c-1.74-3.265-3.828-7.277-7.8-8.077a6.421,6.421,0,0,0-6.215,1.7,8.343,8.343,0,0,0-1.7,6.462c.357,2.945,1.911,5.723,3.058,8.424q1.856,4.37,3.713,8.736a2.414,2.414,0,0,0,3.284.861,2.463,2.463,0,0,0,.861-3.283Z"/>
<path class="d" d="M94.682,155.523c2.719,2.144,6.821,5.613,10.448,3.731a6.541,6.541,0,0,0,2.313-8.988A27.4,27.4,0,0,0,102.5,145.4a22.079,22.079,0,0,0-8.407-4.479c-2.715-.824-6.472-.849-8.441,1.523-2.063,2.486-3.761,6.061-3.486,9.371.287,3.458,2.058,6.158,4.346,8.623a86.653,86.653,0,0,0,7.113,7.023,13.542,13.542,0,0,1,3.416,3.65,22.641,22.641,0,0,1,1.316,3.128c.847,2.283,1.658,4.6,2.3,6.955.812,2.977,5.443,1.713,4.628-1.276a63.829,63.829,0,0,0-3.867-10.765c-1.153-2.4-3.243-4.074-5.21-5.782a73.192,73.192,0,0,1-5.771-5.753c-1.606-1.742-3.14-3.28-3.47-5.8a7.658,7.658,0,0,1,.667-3.527,7.181,7.181,0,0,1,1.71-2.8c-.226.179.345-.158.142-.07-.026.012.668-.17.566-.154a6.069,6.069,0,0,1,1.576,0,16.57,16.57,0,0,1,3.229.97,15.682,15.682,0,0,1,4.913,3.136c.914.8,1.823,1.61,2.685,2.465a9.269,9.269,0,0,1,1.042,1.111c-.244-.34.052.2.058.57.013.746-.268,1.494-.93,1.436a6.738,6.738,0,0,1-2.211-1.185,24.807,24.807,0,0,1-2.332-1.634,2.478,2.478,0,0,0-3.394,0,2.416,2.416,0,0,0,0,3.394Z"/>
<path class="d" d="M92.267,140.79c.392.487.047.032-.028-.1-.034-.059-.291-.636-.115-.179a5.945,5.945,0,0,1-.209-.647c-.012-.047-.111-.736-.075-.3a4.214,4.214,0,0,1-.005-.728c-.035.392.062-.215.087-.3.018-.065.174-.618.072-.276-.1.317.108-.19.141-.261s.081-.134.127-.2q-.321.4-.142.2c.1-.057.362-.451.129-.14-.207.277-.026,0,.117-.041.466-.142-.474.144-.023,0,.323-.1.667-.177.985-.292q-.386.027-.107.008c.113-.01.226-.015.34-.015.224,0,.449.009.673.023a10.8,10.8,0,0,1,2.4.423c.881.225,1.75.469,2.609.769.509.177-.15-.1.285.123.206.106.412.208.612.327.014.008.614.412.271.149a4.745,4.745,0,0,1,.508.463c.072.074.441.572.191.2.126.186.229.383.348.572.224.358-.008-.091.072.141a6.964,6.964,0,0,1,.213.75,2.42,2.42,0,0,0,2.952,1.677,2.454,2.454,0,0,0,1.676-2.953,8.579,8.579,0,0,0-5.633-6,18.545,18.545,0,0,0-7.407-1.465c-2.208.123-4.551,1.137-5.536,3.226a7.713,7.713,0,0,0,1.076,8.23,2.407,2.407,0,0,0,3.394,0,2.47,2.47,0,0,0,0-3.394Z"/>
<path class="d" d="M95.232,133.246a3.542,3.542,0,0,0,0-.478c-.032.235.126-.345.049-.165-.041.1.193-.367.235-.441.007-.014.232-.342.1-.175a6.273,6.273,0,0,1,.74-.745c.164-.153.182-.123,0,0,.151-.1.3-.2.457-.285.065-.037.51-.248.152-.1.152-.062.311-.112.467-.158a6.229,6.229,0,0,1,.645-.153c.436-.079-.25.02.2-.026a15.94,15.94,0,0,1,2.658-.028c.172.011.343.025.515.041.058,0,.694.082.386.039-.269-.037.261.044.309.051.227.037.453.073.679.114a14.71,14.71,0,0,1,2.047.511,4.931,4.931,0,0,1,.6.316c.067.04.508.375.228.135.124.106.234.225.353.336l.167.183c-.086-.127-.083-.122.01.013a4.972,4.972,0,0,1,.269.434c.047.084.226.524.129.247a4.748,4.748,0,0,1,.141.5c-.078-.328.017.332.017.386a2.4,2.4,0,0,0,4.8,0,7.584,7.584,0,0,0-3.691-6.375,15.69,15.69,0,0,0-6.956-1.727,11.317,11.317,0,0,0-6.826,1.289,7.41,7.41,0,0,0-3.681,6.269,2.4,2.4,0,1,0,4.8,0Z"/>
<path class="d" d="M132.711,178.589c1.441,4.674,3.047,9.3,4.689,13.909a2.4,2.4,0,0,0,4.628-1.276c-1.642-4.606-3.248-9.236-4.689-13.909a2.4,2.4,0,1,0-4.628,1.276Z"/>
<path class="d" d="M212.184,107.489a13.5,13.5,0,0,0,2.087,5.738,15.784,15.784,0,0,0,5,4.33,2.4,2.4,0,0,0,2.423-4.145c-.395-.225-.784-.461-1.162-.714q-.256-.172-.5-.354c-.306-.223-.026-.036.1.087-.082-.078-.18-.142-.267-.214a11.9,11.9,0,0,1-.951-.872c-.157-.161-.309-.328-.455-.5-.061-.07-.311-.4-.068-.07s-.02-.032-.055-.08a8.253,8.253,0,0,1-.66-1.094c-.032-.062-.152-.245-.145-.305-.011.093.23.579.078.168-.07-.189-.133-.381-.191-.574a24,24,0,0,1-.606-2.678,2.412,2.412,0,0,0-2.952-1.676,2.465,2.465,0,0,0-1.676,2.952Z"/>
<path class="a" d="M209.95,121.21h0C210,121.186,210,121.183,209.95,121.21Z"/>
<path class="d" d="M250.434,272.7a142.737,142.737,0,0,0,20.583-9.069c7.294-3.972,14.591-8.865,18.634-16.353,6.555-12.139,3.694-26.259,1.4-39.122-1.639-9.195-3.946-18.2-6.383-27.208-1.6-5.918-3.225-11.827-5.149-17.65a109.676,109.676,0,0,0-8.806-20.791,47.538,47.538,0,0,0-15.39-16.1c-10.177-6.552-22.335-9.363-33.767-12.964l-1.361-.429c-2.953-.93-4.217,3.7-1.276,4.629l10.529,3.316c6.166,1.942,12.363,3.722,18.175,6.61A44.145,44.145,0,0,1,263.73,140.6c4.183,5.662,6.981,12.261,9.381,18.838,2.267,6.215,4.151,12.563,5.891,18.943,2.065,7.57,4.174,15.138,5.831,22.81,1.539,7.127,2.792,14.384,3.7,21.621a44.652,44.652,0,0,1,.345,8.065,35.677,35.677,0,0,1-1.331,9.128,26.65,26.65,0,0,1-4.67,8.809,38.505,38.505,0,0,1-9.2,7.691,117.385,117.385,0,0,1-20.441,10.048q-2.028.789-4.079,1.516a2.461,2.461,0,0,0-1.677,2.953,2.422,2.422,0,0,0,2.953,1.676Z"/>
<path class="d" d="M132.39,159.278c1.6-7.695,4.539-15.559,9.492-21.745a29.693,29.693,0,0,1,9.741-7.46,64.485,64.485,0,0,1,6.028-2.774q1.572-.629,3.168-1.2c.216-.077,1.978-.719,1.007-.367.274-.1.546-.2.823-.3,3.211-1.089,6.5-1.926,9.731-2.957,2.932-.936,1.679-5.571-1.276-4.628-7.266,2.319-13.957,4.1-20.775,7.5-3.957,1.972-8,4.382-10.953,7.726a45.661,45.661,0,0,0-7.4,11.881A65.284,65.284,0,0,0,127.761,158c-.626,3.014,4,4.3,4.629,1.276Z"/>
<path class="d" d="M165.148,135.747c6.536,6.51,16.222,7.434,24.947,6.295a61.045,61.045,0,0,0,24.441-9.1c2.612-1.636.205-5.791-2.423-4.145a57.046,57.046,0,0,1-21.795,8.409c-7.423,1.107-16.147.753-21.776-4.853-2.192-2.183-5.587,1.21-3.394,3.394Z"/>
<path class="d" d="M217.355,113.389a134.55,134.55,0,0,0-6.238,30.5,86.933,86.933,0,0,0,.234,15.177c.563,5.356,1.637,10.652,2.64,15.94,1.876,9.893,3.961,19.8,5.05,29.824.62,5.707,1.023,11.441,1.473,17.164.495,6.3.934,12.608,1.495,18.9a2.464,2.464,0,0,0,2.4,2.4,2.417,2.417,0,0,0,2.4-2.4c-1.024-11.483-1.685-23-2.805-34.474-.882-9.036-2.586-17.987-4.281-26.9-1.959-10.3-4.224-20.525-4.014-31.07.229-11.534,2.857-22.816,6.275-33.785.921-2.956-3.712-4.221-4.629-1.276Z"/>
<path class="d" d="M166.033,209.948c-1.891-10.4-4.085-20.95-3.86-31.576.115-5.431,1.039-10.909,1.715-16.293.766-6.1,2.192-12.069,3.194-18.132,1.228-7.427,2.091-14.91,2.949-22.387a2.414,2.414,0,0,0-2.4-2.4,2.457,2.457,0,0,0-2.4,2.4c-.755,6.579-1.509,13.16-2.549,19.7-.981,6.174-2.448,12.251-3.285,18.448-.415,3.077-.761,6.163-1.121,9.247-.308,2.644-.723,5.282-.852,7.943a93.018,93.018,0,0,0,1.046,16.842c.788,5.86,1.877,11.668,2.934,17.483a2.423,2.423,0,0,0,2.953,1.677,2.453,2.453,0,0,0,1.676-2.953Z"/>
<path class="d" d="M210.644,111.861a58.018,58.018,0,0,0,8.947-9.607,47.609,47.609,0,0,0,4.74-7.477,2.463,2.463,0,0,0-.861-3.284,2.422,2.422,0,0,0-3.283.861,47.424,47.424,0,0,1-4.58,7.262,52.254,52.254,0,0,1-3.642,4.368,54.4,54.4,0,0,1-4.715,4.483,2.42,2.42,0,0,0,0,3.394,2.451,2.451,0,0,0,3.394,0Z"/>
<path class="d" d="M199.012,112.759c-10.5,4.812-22.883,7.027-33.616,1.617a29.817,29.817,0,0,1-12.245-10.713c-2.965-4.832-4.437-10.4-5.27-15.966-1.1-7.361-1.029-14.82-2.473-22.147a2.424,2.424,0,0,0-2.952-1.676,2.45,2.45,0,0,0-1.677,2.952c1.39,7.049,1.379,14.246,2.36,21.347a47.05,47.05,0,0,0,5.494,17.288c6.3,10.837,19.021,17.122,31.372,16.888,7.523-.142,14.636-2.332,21.429-5.445a2.419,2.419,0,0,0,.861-3.284,2.457,2.457,0,0,0-3.283-.861Z"/>
<path class="d" d="M227.919,71.005a4.812,4.812,0,0,1,4.485-.463,3.673,3.673,0,0,1,1.386.884c.108.111.21.225.308.344-.134-.174-.155-.195-.062-.061a5.481,5.481,0,0,1,.331.557c1.265,2.578.555,6.355-.386,9a15.852,15.852,0,0,1-5.133,7.179,7.972,7.972,0,0,1-3.649,1.6,6.859,6.859,0,0,1-4.186-.145,2.47,2.47,0,0,0-3.284.861,2.419,2.419,0,0,0,.861,3.283A12.98,12.98,0,0,0,229,93.855a16.926,16.926,0,0,0,7.555-7.05,21.963,21.963,0,0,0,3.162-9.83c.227-3.1-.261-6.507-2.451-8.857A9.557,9.557,0,0,0,225.5,66.86c-2.561,1.7-.16,5.861,2.423,4.145Z"/>
<path class="d" d="M197.4,72.354c.705,2.119.389,7.038-3.645,7.547-5.345.089-5.764-5.84-4.028-8.671C191.145,68.911,195.454,67.863,197.4,72.354Z"/>
<path class="d" d="M165.224,72.157c.653,2.058.375,6.829-3.324,7.313-4.9.072-5.3-5.682-3.719-8.424C159.479,68.8,163.429,67.8,165.224,72.157Z"/>
<path class="d" d="M173.23,81.834c-.668,1.194-1.3,2.41-1.865,3.656a5.227,5.227,0,0,0-.6,2.128,3.124,3.124,0,0,0,1.146,2.463,4.419,4.419,0,0,0,1.924,1.022c.467.091.928.1,1.4.159a2.392,2.392,0,0,0,1.7-.7,2.4,2.4,0,0,0,0-3.394l-.486-.375a2.389,2.389,0,0,0-1.212-.328c-.209-.025-.42-.027-.629-.053l.638.086a2.2,2.2,0,0,1-.54-.15l.574.242a2.493,2.493,0,0,1-.453-.276l.485.375a2.521,2.521,0,0,1-.3-.271l.375.486a.646.646,0,0,1-.08-.127l.242.573a1.048,1.048,0,0,1-.061-.214l.086.638a1.426,1.426,0,0,1,.008-.313l-.086.638a2.833,2.833,0,0,1,.173-.567l-.242.574c.573-1.317,1.25-2.594,1.95-3.847a2.5,2.5,0,0,0,.242-1.849,2.4,2.4,0,0,0-4.386-.573Z"/>
<path class="d" d="M191.693,96.965a2.506,2.506,0,0,1,.328.355l-.375-.485a6.222,6.222,0,0,1,.785,1.384l-.242-.574a5.122,5.122,0,0,1,.357,1.223,2.69,2.69,0,0,0,1.1,1.434,1.788,1.788,0,0,0,.893.285,1.823,1.823,0,0,0,.957-.043,2.429,2.429,0,0,0,1.434-1.1l.242-.573a2.423,2.423,0,0,0,0-1.276,4.7,4.7,0,0,0-.225-.88,11.5,11.5,0,0,0-.6-1.4,5.948,5.948,0,0,0-.449-.752,5.564,5.564,0,0,0-.817-1,1.794,1.794,0,0,0-.772-.5,2.471,2.471,0,0,0-2.622.5,2.418,2.418,0,0,0-.7,1.7,2.394,2.394,0,0,0,.7,1.7Z"/>
<path class="d" d="M170.627,102.36a15.229,15.229,0,0,0,7.365,1.3,17.547,17.547,0,0,0,3.632-.547,10.91,10.91,0,0,0,3.665-1.481,2.458,2.458,0,0,0,.861-3.283,2.425,2.425,0,0,0-3.283-.861,6.006,6.006,0,0,1-.633.4c-.225.127-.146.068.045,0-.122.046-.243.093-.365.135-.489.17-.99.307-1.488.446a12.625,12.625,0,0,1-1.336.3c-.064.011-.468.073-.126.023s-.07.006-.135.013c-.278.03-.558.052-.837.067q-.757.042-1.517.017-.378-.013-.756-.043c-.125-.01-.249-.024-.374-.034-.41-.036.069.039.084.017-.079.117-1.345-.263-1.491-.3-.218-.06-.434-.126-.647-.2-.1-.036-.2-.08-.307-.114-.3-.1.54.244.066.018a2.4,2.4,0,0,0-2.423,4.145Z"/>
<path class="d" d="M154.052,42.505a36.72,36.72,0,0,0,13.386,11.851,57.193,57.193,0,0,0,11.389,4.1,56.228,56.228,0,0,0,9.8,1.753,58.124,58.124,0,0,0,9.188-.146,2.46,2.46,0,0,0,2.4-2.4,2.419,2.419,0,0,0-2.4-2.4,50.642,50.642,0,0,1-15.932-.988c-6.458-1.533-12.977-3.666-18.11-8.039a33.248,33.248,0,0,1-5.579-6.155,2.464,2.464,0,0,0-3.284-.861,2.421,2.421,0,0,0-.861,3.284Z"/>
<path class="d" d="M189.948,50.687A58.07,58.07,0,0,0,201.5,62.04a116.188,116.188,0,0,0,13.529,8.3c2.71,1.486,5.135-2.657,2.423-4.144-8.72-4.782-17.208-9.925-23.36-17.932a2.479,2.479,0,0,0-3.283-.861,2.414,2.414,0,0,0-.861,3.283Z"/>
<path class="d" d="M153.187,37.811A34.285,34.285,0,0,0,144.072,51.3c-2.11,5.366-2.782,10.931-3.136,16.648-.191,3.085,4.61,3.074,4.8,0a49.426,49.426,0,0,1,2.809-14.972,29.473,29.473,0,0,1,8.036-11.765c2.332-2.035-1.075-5.418-3.394-3.4Z"/>
<path class="d" d="M149.43,18.562a46.48,46.48,0,0,0-9.585,20.056c-1.383,6.168-1.264,12.539-.775,18.809a108.732,108.732,0,0,0,1.476,11.458,2.422,2.422,0,0,0,2.952,1.677,2.452,2.452,0,0,0,1.676-2.953,87.774,87.774,0,0,1-1.435-23.242,45.017,45.017,0,0,1,2.707-11.218,37.015,37.015,0,0,1,6.379-11.193,2.464,2.464,0,0,0,0-3.394,2.421,2.421,0,0,0-3.395,0Z"/>
<path class="d" d="M152.825,21.956a45.706,45.706,0,0,1,14.234-11.832,48.122,48.122,0,0,1,16.686-4.876c10.614-1.207,21.115-.091,30.676,4.944a53.541,53.541,0,0,1,16.163,13.276,48.168,48.168,0,0,1,8.305,15.279c4.449,12.743.252,26.276.939,39.323a43.226,43.226,0,0,0,1.2,8.825,15.689,15.689,0,0,0,.477,1.5c.129.34.282.67.418,1.007-.184-.456.023.07.085.242a20.789,20.789,0,0,1,.779,2.646,15.253,15.253,0,0,1,.2,5.623,8.882,8.882,0,0,1-2.919,5.3,12.12,12.12,0,0,1-3.31,1.953,2.414,2.414,0,0,0-.861,3.283,2.463,2.463,0,0,0,3.284.861,14.316,14.316,0,0,0,8.771-12.954,21.034,21.034,0,0,0-.875-6.675q-.2-.665-.436-1.313c-.069-.186-.142-.369-.217-.553s-.392-.957-.239-.568c.1.259-.075-.2-.09-.243a23.26,23.26,0,0,1-.918-3.633c-1.2-6.886-.4-13.762.174-20.654.592-7.138.7-14.525-.8-21.566a48.229,48.229,0,0,0-2.862-8.5,45.285,45.285,0,0,0-4.327-8.144,59.046,59.046,0,0,0-16-15.783A54.323,54.323,0,0,0,188.2.083a59.627,59.627,0,0,0-18.813,3.753,47.9,47.9,0,0,0-16.469,10.833c-1.229,1.239-2.386,2.543-3.492,3.892a2.472,2.472,0,0,0,0,3.395,2.421,2.421,0,0,0,3.395,0Z"/>
<path class="d" d="M237.329,104.926a35.248,35.248,0,0,1-5.141,1.7c-.412.095-.827.178-1.245.246-.643.105.337-.024-.17.028-.211.022-.422.046-.634.063a17.394,17.394,0,0,1-2.72,0,2.412,2.412,0,0,0-2.4,2.4,2.459,2.459,0,0,0,2.4,2.4,25.1,25.1,0,0,0,11.186-2.206,2.621,2.621,0,0,0,1.434-1.1,2.453,2.453,0,0,0,.242-1.849,2.425,2.425,0,0,0-2.952-1.676Z"/>
</g>
</svg>